<svg class="icon" style="width: 1em; height: 1em;vertical-align: middle;fill: currentColor;overflow: hidden;" viewBox="0 0 1024 1024" version="1.1" xmlns="http://www.w3.org/2000/svg"><path d="M901.07432 529.404392h-49.665143l1.242293-206.128661L572.913325 20.421098H147.051147c-66.077951 0-119.835296 53.758368-119.835295 119.835296v754.041592c0 66.077951 53.758368 119.835296 119.835295 119.835296h584.367191c63.818491 0 116.146277-50.145074 119.649054-113.103988h50.006928c66.076928 0 119.834272-53.757345 119.834272-119.834272V649.239687c0-66.076928-53.757345-119.835296-119.834272-119.835295zM576.250326 99.456153L772.72921 312.24449H644.920312c-37.865399 0-68.669986-30.80561-68.669986-68.668962V99.456153z m155.168012 863.511819H147.051147c-37.864376 0-68.669986-30.80561-68.669985-68.669986V140.256394c0-37.864376 30.80561-68.669986 68.669985-68.669986h378.033869v171.98912c0 66.076928 53.758368 119.834272 119.835296 119.834272H801.242614l-1.000794 165.993569H354.406752c-66.076928 0-119.834272 53.758368-119.834272 119.835295V781.195022c0 66.076928 53.757345 119.834272 119.834272 119.834272l445.354114 0.001023c-3.394307 34.716686-32.749892 61.937654-68.342528 61.937655zM969.743282 781.195022c0 37.864376-30.80561 68.668962-68.668962 68.668962h-100.985996v0.001024l-445.681572-0.001024c-37.864376 0-68.668962-30.80561-68.668962-68.668962V649.239687c0-37.865399 30.80561-68.669986 68.668962-68.669985h546.667568c37.864376 0 68.668962 30.80561 68.668962 68.669985v131.955335zM511.906879 134.168746H133.896546v376.732223h378.010333V134.168746z m-51.16531 325.566913H185.061856V185.334056h275.679713v274.401603zM465.154066 748.130975c0 13.758352-1.385557 20.221554-2.238994 22.892383-1.407046 4.122901-3.696182 7.102768-7.430227 9.663081-3.852748 2.647293-10.225899 4.046153-18.428721 4.046152-13.110599 0-17.134239-4.182252-18.463514-5.563715-4.803399-4.988618-5.847172-14.585183-5.877871-21.75856l-51.16531 0.215917c0.101307 24.038486 6.892991 43.227524 20.180622 57.025785 13.564947 14.097066 32.178887 21.245883 55.32505 21.245883 18.85851 0 34.806737-4.386914 47.38317-13.025664 12.96222-8.889461 22.050202-20.886703 27.013237-35.660175l0.069585-0.212847c3.227508-9.893324 4.797259-22.607904 4.797259-38.86824V626.197902h-51.16531v121.933073zM218.887242 441.312054h208.499662c10.735505 0 20.312628-6.375198 24.399713-16.241916 3.799536-9.17394 2.119267-19.565615-4.222162-27.087938-7.323802-9.197476-17.539468-25.514093-27.421536-41.300638-7.249101-11.579733-14.224979-22.722514-20.655436-32.105209 8.420787-2.77316 16.173354-7.535627 22.691815-14.048971 10.895141-10.886955 16.895809-25.221428 16.895809-40.361243 0-15.151072-5.997598-29.493731-16.888645-40.384779-10.887978-10.889001-25.222451-16.885576-40.36329-16.885575-31.559786 0-57.235562 25.691125-57.235562 57.270354 0 18.216897 8.55484 34.473139 21.85782 44.963051l-10.555403 11.775185c-29.864168-40.245609-35.997865-58.694797-36.822651-61.540612l-0.339737-3.012613-1.784646-3.809769c-4.264117-9.104355-13.161764-14.859429-23.218818-15.018042-10.034541-0.170892-19.517519 5.556553-24.087605 14.560624l-0.172938 0.347924c-6.674003 13.660114-18.464537 46.245254-34.392298 90.788749-7.786337 21.773909-17.477047 48.873104-19.840884 53.729716l-2.697435 5.398963v6.572696c-0.001023 14.551414 11.822257 26.390044 26.354227 26.390043z m162.934907-177.250959c3.071965 0 6.086625 3.02387 6.086625 6.105044 0 3.063779-3.01466 6.070252-6.086625 6.070253-3.63069 0-6.070252-3.13848-6.070253-6.070253 0-2.935865 2.320858-6.105045 6.070253-6.105044z m-14.620999 104.56552c3.145643 4.937452 6.377244 10.101055 9.573029 15.205307a6467.254242 6467.254242 0 0 0 3.956102 6.314823h-32.8205l19.291369-21.52013z m-103.953584-2.178619c4.097318-11.460006 8.547677-23.904433 12.854773-35.756365 9.346879 14.308891 21.824051 31.567973 38.472219 52.184523l5.870708 7.269567h-65.697281c2.474354-6.855128 5.291516-14.725376 8.499581-23.697725zM726.709083 843.160305h51.16531v-74.096578h82.201164v-51.16531h-82.201164v-39.401382h92.623537v-51.16531H726.709083zM665.23908 729.687928c-7.41283-7.593955-16.169261-13.348006-26.0237-17.10354l-0.10847-0.040932c-5.251607-1.973958-9.908674-4.031826-13.842263-6.117325l-0.029676 0.055259c-4.824889-2.440585-10.18906-4.78498-16.020882-6.999415-2.351558-0.887206-4.41352-2.184759-6.277984-3.954055-0.204661-0.647753-0.581238-2.200108-0.674358-5.054109 0.033769-4.327562 0.833995-7.036253 1.604544-7.78736 0.51063-0.496304 3.544733-1.918699 10.608615-1.938142l0.330528-0.001024c6.2831 0 9.172917 0.954745 10.138918 1.374301 0.397043 0.995677 1.023306 3.533476 0.992607 8.017604l51.163263 0.354064c0.135076-19.443841-5.498224-34.734082-16.767895-45.473681-10.886955-10.344602-26.371624-15.502066-46.063106-15.435551-19.421328 0.054235-34.921347 5.578042-46.097897 16.444531-7.79964 7.605212-17.093307 21.549805-17.076934 44.791135l0.008186 0.616031c0.408299 16.504906 5.320169 29.700439 14.60258 39.223326 7.259334 7.445576 15.820314 13.063527 25.397436 16.676821 5.01113 1.902326 9.389858 3.867074 13.014409 5.840009l0.038885-0.071632c5.120624 2.562359 10.787694 5.016247 16.893762 7.312546a20.73423 20.73423 0 0 1 7.125281 4.561899c0.220011 0.602727 0.704035 2.282996 0.820692 5.612835-0.061398 4.324492-0.87288 6.337335-1.111311 6.662747-0.542352 0.446162-3.735068 2.653433-13.669324 2.653433l-0.25992-0.001024-0.381693 0.002047c-7.272637 0.060375-10.825556-1.046842-12.251022-1.698688-0.210801-0.798179-0.494257-2.349511-0.511653-4.944616v-3.897773h-51.16531v4.12597c0.13303 25.040303 11.122315 38.461987 20.288069 45.289486 10.921747 8.160867 25.365714 12.295024 42.950208 12.295024 0.356111-0.001023 0.715291-0.002047 1.074471-0.00614l0.239454 0.001023c19.094894-0.001023 34.625612-4.804423 46.197158-14.30889 8.964162-7.388271 19.671015-21.425985 19.769253-46.339398l0.001023-0.37453-0.00921-0.373507c-0.426719-16.829294-5.442966-30.281677-14.916734-39.988759z"/></svg>